<svg width="677" height="531" viewBox="0 0 677 531" fill="none" xmlns="http://www.w3.org/2000/svg">
<g opacity="0.987">
<path fill-rule="evenodd" clip-rule="evenodd" d="M1.5 0.5C105.667 1.832 209.833 1.832 314 0.5C314.5 1 315 1.5 315.5 2C295.174 37.581 290.674 75.081 302 114.5C305.335 125.501 309.502 136.168 314.5 146.5C273.839 147.5 233.172 147.833 192.5 147.5C192.5 166.167 192.5 184.833 192.5 203.5C245.168 203.333 297.834 203.5 350.5 204C367.142 224.777 384.142 245.277 401.5 265.5C384.142 285.723 367.142 306.223 350.5 327C297.834 327.5 245.168 327.667 192.5 327.5C192.5 346.167 192.5 364.833 192.5 383.5C233.172 383.167 273.839 383.5 314.5 384.5C292.789 426.129 290.289 468.796 307 512.5C309.706 518.08 312.539 523.58 315.5 529C315 529.5 314.5 530 314 530.5C210 529.17 106 529.17 2 530.5C1.5 530 1 529.5 0.5 529C60.205 498.084 84.038 449.251 72 382.5C69.982 372.428 67.649 362.428 65 352.5C55.724 323.172 45.558 294.172 34.5 265.5C44.296 238.947 53.796 212.28 63 185.5C73.326 155.226 76.66 124.226 73 92.5C67.87 63.742 54.037 40.242 31.5 22C22.176 14.667 12.176 8.334 1.5 3C0.402 2.23 0.402 1.397 1.5 0.5Z" fill="#FEFFFE"/>
<path fill-rule="evenodd" clip-rule="evenodd" d="M352.5 0.5C393.333 1.831 434.167 1.831 475 0.5C475.5 1 476 1.5 476.5 2C417.678 42.095 408.844 91.262 450 149.5C466.521 171.36 485.188 191.36 506 209.5C525.787 191.384 543.787 171.717 560 150.5C573.325 132.181 581.991 111.847 586 89.5C588.143 65.93 581.476 45.264 566 27.5C556.82 18.173 546.987 9.673 536.5 2C537 1.5 537.5 1 538 0.5C579.135 1.491 620.14 1.824 661 1.5C680.93 47.498 681.59 93.832 663 140.5C648.26 175.006 628.26 206.006 603 233.5C592.29 244.375 581.459 255.042 570.5 265.5C602.42 293.57 628.92 325.903 650 362.5C674 404.843 681.34 449.843 672 497.5C669.37 509.047 665.37 520.05 660 530.5C619.33 529.17 578.667 529.17 538 530.5C537.5 530 537 529.5 536.5 529C591.07 492.162 600.9 445.662 566 389.5C548.918 364.408 528.918 341.741 506 321.5C485.188 339.64 466.521 359.64 450 381.5C408.844 439.738 417.678 488.905 476.5 529C476 529.5 475.5 530 475 530.5C433.865 529.51 392.865 529.18 352 529.5C327.425 473.768 329.758 419.102 359 365.5C380.399 328.58 406.566 295.247 437.5 265.5C406.566 235.753 380.399 202.42 359 165.5C329.539 111.458 327.372 56.458 352.5 0.5Z" fill="#FEFFFE"/>
</g>
</svg>
